<?xml version="1.0" encoding="UTF-8"?>
<svg width="32" height="48" viewBox="0 0 32 48" xmlns="http://www.w3.org/2000/svg">
  <!-- Skirt Waistband -->
  <path d="M8 40
           L24 40
           L24 42
           L8 42
           Z"
        fill="#FFFFFF"/>
  
  <!-- Skirt Body -->
  <path d="M10 42
           C10 42 8 44 8 46
           L12 46
           L13 42
           Z"
        fill="#FFFFFF"/>
        
  <path d="M22 42
           C22 42 24 44 24 46
           L20 46
           L19 42
           Z"
        fill="#FFFFFF"/>
  
  <!-- Center Panel -->
  <path d="M13 42
           L19 42
           L20 46
           L12 46
           Z"
        fill="#FFFFFF"/>
  
  <!-- Belt Loops -->
  <path d="M10 40
           L10 42"
        stroke="#F0F0F0"
        stroke-width="1"/>
        
  <path d="M14 40
           L14 42"
        stroke="#F0F0F0"
        stroke-width="1"/>
        
  <path d="M18 40
           L18 42"
        stroke="#F0F0F0"
        stroke-width="1"/>
        
  <path d="M22 40
           L22 42"
        stroke="#F0F0F0"
        stroke-width="1"/>
  
  <!-- Pleats -->
  <path d="M12 42
           L11 46"
        stroke="#F0F0F0"
        stroke-width="1"/>
        
  <path d="M15 42
           L14 46"
        stroke="#F0F0F0"
        stroke-width="1"/>
        
  <path d="M18 42
           L19 46"
        stroke="#F0F0F0"
        stroke-width="1"/>
        
  <path d="M21 42
           L22 46"
        stroke="#F0F0F0"
        stroke-width="1"/>
  
  <!-- Hem -->
  <path d="M8 46
           C8 46 12 45.5 16 45.5
           C20 45.5 24 46 24 46"
        stroke="#F0F0F0"
        stroke-width="1"
        fill="none"/>
  
  <!-- Shadows -->
  <path d="M10 42
           C10 42 9 44 9 46"
        stroke="#E0E0E0"
        stroke-width="0.5"
        fill="none"/>
        
  <path d="M22 42
           C22 42 23 44 23 46"
        stroke="#E0E0E0"
        stroke-width="0.5"
        fill="none"/>
</svg>
