<?xml version="1.0" encoding="UTF-8"?>
<svg width="32" height="48" viewBox="0 0 32 48" xmlns="http://www.w3.org/2000/svg">
  <!-- Shorts Waistband -->
  <path d="M8 40
           L24 40
           L24 42
           L8 42
           Z"
        fill="#FFFFFF"/>
  
  <!-- Shorts Legs -->
  <path d="M10 42
           L12 45
           L14 45
           L13 42
           Z"
        fill="#FFFFFF"/>
        
  <path d="M19 42
           L18 45
           L20 45
           L22 42
           Z"
        fill="#FFFFFF"/>
  
  <!-- Belt Loops -->
  <path d="M10 40
           L10 42"
        stroke="#F0F0F0"
        stroke-width="1"/>
        
  <path d="M14 40
           L14 42"
        stroke="#F0F0F0"
        stroke-width="1"/>
        
  <path d="M18 40
           L18 42"
        stroke="#F0F0F0"
        stroke-width="1"/>
        
  <path d="M22 40
           L22 42"
        stroke="#F0F0F0"
        stroke-width="1"/>
  
  <!-- Leg Openings -->
  <path d="M12 45
           C12 45 13 44.5 14 45"
        stroke="#F0F0F0"
        stroke-width="1"
        fill="none"/>
        
  <path d="M18 45
           C18 45 19 44.5 20 45"
        stroke="#F0F0F0"
        stroke-width="1"
        fill="none"/>
  
  <!-- Wrinkles -->
  <path d="M11 43.5
           L13 43.5"
        stroke="#F0F0F0"
        stroke-width="1"/>
        
  <path d="M19 43.5
           L21 43.5"
        stroke="#F0F0F0"
        stroke-width="1"/>
  
  <!-- Seams -->
  <path d="M16 42
           L16 45"
        stroke="#F0F0F0"
        stroke-width="0.5"/>
  
  <!-- Shadows -->
  <path d="M10 42
           L12 45"
        stroke="#E0E0E0"
        stroke-width="0.5"
        fill="none"/>
        
  <path d="M22 42
           L20 45"
        stroke="#E0E0E0"
        stroke-width="0.5"
        fill="none"/>
</svg>
