<?xml version="1.0" encoding="UTF-8"?>
<svg width="32" height="48" viewBox="0 0 32 48" xmlns="http://www.w3.org/2000/svg">
  <!-- Head -->
  <circle cx="16" cy="10" r="8" fill="#F5D0C5"/>
  
  <!-- Neck -->
  <rect x="14" y="18" width="4" height="2" fill="#F5D0C5"/>
  
  <!-- Body -->
  <path d="M10 20 L22 20 L24 40 L8 40 C8 40 10 30 10 20" fill="#F5D0C5"/>
  
  <!-- Arms (more muscular) -->
  <path d="M8 20 C8 20 4 25 6 38" stroke="#F5D0C5" stroke-width="5" stroke-linecap="round"/>
  <path d="M24 20 C24 20 28 25 26 38" stroke="#F5D0C5" stroke-width="5" stroke-linecap="round"/>
  
  <!-- Legs (more defined) -->
  <path d="M12 40 L10 48" stroke="#F5D0C5" stroke-width="5" stroke-linecap="round"/>
  <path d="M20 40 L22 48" stroke="#F5D0C5" stroke-width="5" stroke-linecap="round"/>
  
  <!-- Muscle definition -->
  <path d="M12 25 C16 28 16 28 20 25" stroke="#E5C0B5" stroke-width="1" fill="none"/>
  <path d="M11 32 C16 35 16 35 21 32" stroke="#E5C0B5" stroke-width="1" fill="none"/>
</svg>
