<?xml version="1.0" encoding="UTF-8"?>
<svg width="32" height="48" viewBox="0 0 32 48" xmlns="http://www.w3.org/2000/svg">
  <!-- Head -->
  <circle cx="16" cy="10" r="8" fill="#F5D0C5"/>
  
  <!-- Neck -->
  <rect x="13" y="18" width="6" height="2" fill="#F5D0C5"/>
  
  <!-- Body (rounder) -->
  <path d="M8 20 
           C8 20 8 25 8 30
           C8 35 10 40 16 40
           C22 40 24 35 24 30
           C24 25 24 20 24 20
           Z" fill="#F5D0C5"/>
  
  <!-- Arms (wider) -->
  <path d="M8 22 C8 22 4 28 6 38" stroke="#F5D0C5" stroke-width="6" stroke-linecap="round"/>
  <path d="M24 22 C24 22 28 28 26 38" stroke="#F5D0C5" stroke-width="6" stroke-linecap="round"/>
  
  <!-- Legs (wider) -->
  <path d="M12 40 L10 48" stroke="#F5D0C5" stroke-width="6" stroke-linecap="round"/>
  <path d="M20 40 L22 48" stroke="#F5D0C5" stroke-width="6" stroke-linecap="round"/>
  
  <!-- Soft shading -->
  <path d="M12 25 C16 28 16 28 20 25" stroke="#E5C0B5" stroke-width="1" fill="none"/>
  <path d="M11 32 C16 35 16 35 21 32" stroke="#E5C0B5" stroke-width="1" fill="none"/>
  <path d="M10 28 C16 31 16 31 22 28" stroke="#E5C0B5" stroke-width="1" fill="none"/>
</svg>
