<?xml version="1.0" encoding="UTF-8"?>
<svg width="32" height="48" viewBox="0 0 32 48" xmlns="http://www.w3.org/2000/svg">
  <!-- Base Hair Shape -->
  <path d="M8 10 
           C8 4 12 2 16 2
           C20 2 24 4 24 10
           C24 12 23 14 22 15
           C21 16 20 16 20 16
           L12 16
           C12 16 11 16 10 15
           C9 14 8 12 8 10
           Z" 
        fill="#4A4A4A"/>
  
  <!-- Spiky Top -->
  <path d="M12 4
           L10 0
           L14 3
           L16 0
           L18 3
           L22 0
           L20 4"
        fill="#4A4A4A"/>
  
  <!-- Side Spikes -->
  <path d="M8 8
           L6 6
           L8 10
           L6 12
           L9 11"
        fill="#4A4A4A"/>
        
  <path d="M24 8
           L26 6
           L24 10
           L26 12
           L23 11"
        fill="#4A4A4A"/>
  
  <!-- Front Spikes -->
  <path d="M12 4
           C10 6 9 8 10 10
           C11 12 12 13 12 13
           L10 14
           L13 12"
        stroke="#4A4A4A"
        stroke-width="2"
        fill="#4A4A4A"/>
  
  <path d="M20 4
           C22 6 23 8 22 10
           C21 12 20 13 20 13
           L22 14
           L19 12"
        stroke="#4A4A4A"
        stroke-width="2"
        fill="#4A4A4A"/>
  
  <!-- Highlights -->
  <path d="M14 3
           L16 1
           L18 3"
        stroke="#5A5A5A"
        stroke-width="1"
        fill="none"/>
        
  <path d="M10 8
           L12 6
           L14 8"
        stroke="#5A5A5A"
        stroke-width="1"
        fill="none"/>
        
  <path d="M18 8
           L20 6
           L22 8"
        stroke="#5A5A5A"
        stroke-width="1"
        fill="none"/>
</svg>
