<?xml version="1.0" encoding="UTF-8"?>
<svg width="32" height="48" viewBox="0 0 32 48" xmlns="http://www.w3.org/2000/svg">
  <!-- Base Hair Shape -->
  <path d="M8 10 
           C8 4 12 2 16 2
           C20 2 24 4 24 10
           C24 12 23 14 22 15
           C21 16 20 16 20 16
           L12 16
           C12 16 11 16 10 15
           C9 14 8 12 8 10
           Z" 
        fill="#4A4A4A"/>
  
  <!-- Long Flowing Hair -->
  <path d="M10 15
           C10 15 8 18 8 22
           C8 26 10 30 12 34
           C14 38 14 40 14 40"
        stroke="#4A4A4A"
        stroke-width="4"
        fill="none"/>
        
  <path d="M22 15
           C22 15 24 18 24 22
           C24 26 22 30 20 34
           C18 38 18 40 18 40"
        stroke="#4A4A4A"
        stroke-width="4"
        fill="none"/>
  
  <!-- Front Bangs -->
  <path d="M12 4
           C10 6 9 8 10 10
           C11 12 12 13 12 13"
        stroke="#4A4A4A"
        stroke-width="2"
        fill="none"/>
  
  <path d="M20 4
           C22 6 23 8 22 10
           C21 12 20 13 20 13"
        stroke="#4A4A4A"
        stroke-width="2"
        fill="none"/>
  
  <!-- Hair Waves -->
  <path d="M10 20
           C12 22 14 22 16 20
           C18 18 20 18 22 20"
        stroke="#5A5A5A"
        stroke-width="1"
        fill="none"/>
        
  <path d="M10 25
           C12 27 14 27 16 25
           C18 23 20 23 22 25"
        stroke="#5A5A5A"
        stroke-width="1"
        fill="none"/>
        
  <path d="M12 30
           C14 32 16 32 18 30
           C20 28 22 28 24 30"
        stroke="#5A5A5A"
        stroke-width="1"
        fill="none"/>
</svg>
