<?xml version="1.0" encoding="UTF-8"?>
<svg width="32" height="48" viewBox="0 0 32 48" xmlns="http://www.w3.org/2000/svg">
  <!-- Pants Waistband -->
  <path d="M8 40
           L24 40
           L24 42
           L8 42
           Z"
        fill="#FFFFFF"/>
  
  <!-- Pants Legs -->
  <path d="M10 42
           L12 48
           L14 48
           L13 42
           Z"
        fill="#FFFFFF"/>
        
  <path d="M19 42
           L18 48
           L20 48
           L22 42
           Z"
        fill="#FFFFFF"/>
  
  <!-- Belt Loops -->
  <path d="M10 40
           L10 42"
        stroke="#F0F0F0"
        stroke-width="1"/>
        
  <path d="M14 40
           L14 42"
        stroke="#F0F0F0"
        stroke-width="1"/>
        
  <path d="M18 40
           L18 42"
        stroke="#F0F0F0"
        stroke-width="1"/>
        
  <path d="M22 40
           L22 42"
        stroke="#F0F0F0"
        stroke-width="1"/>
  
  <!-- Leg Wrinkles -->
  <path d="M11 44
           L13 44"
        stroke="#F0F0F0"
        stroke-width="1"/>
        
  <path d="M19 44
           L21 44"
        stroke="#F0F0F0"
        stroke-width="1"/>
        
  <path d="M11 46
           L13 46"
        stroke="#F0F0F0"
        stroke-width="1"/>
        
  <path d="M19 46
           L21 46"
        stroke="#F0F0F0"
        stroke-width="1"/>
  
  <!-- Seams -->
  <path d="M16 42
           L16 48"
        stroke="#F0F0F0"
        stroke-width="0.5"/>
  
  <!-- Shadows -->
  <path d="M10 42
           L12 48"
        stroke="#E0E0E0"
        stroke-width="0.5"
        fill="none"/>
        
  <path d="M22 42
           L20 48"
        stroke="#E0E0E0"
        stroke-width="0.5"
        fill="none"/>
</svg>
