<?xml version="1.0" encoding="UTF-8"?>
<svg width="32" height="48" viewBox="0 0 32 48" xmlns="http://www.w3.org/2000/svg">
  <!-- Tank Top Body -->
  <path d="M11 16
           L21 16
           L23 40
           L9 40
           L11 16
           Z"
        fill="#FFFFFF"/>
  
  <!-- Straps -->
  <path d="M11 16
           L10 20
           L12 22
           L13 18"
        fill="#FFFFFF"/>
        
  <path d="M21 16
           L22 20
           L20 22
           L19 18"
        fill="#FFFFFF"/>
  
  <!-- Neckline -->
  <path d="M13 16
           C13 16 16 18 19 16"
        stroke="#F0F0F0"
        stroke-width="2"
        fill="none"/>
  
  <!-- Wrinkles -->
  <path d="M12 24
           C14 25 18 25 20 24"
        stroke="#F0F0F0"
        stroke-width="1"
        fill="none"/>
        
  <path d="M11 32
           C14 33 18 33 21 32"
        stroke="#F0F0F0"
        stroke-width="1"
        fill="none"/>
  
  <!-- Strap Details -->
  <path d="M11 17
           L10.5 19"
        stroke="#F0F0F0"
        stroke-width="1"
        fill="none"/>
        
  <path d="M21 17
           L21.5 19"
        stroke="#F0F0F0"
        stroke-width="1"
        fill="none"/>
  
  <!-- Shadows -->
  <path d="M11 16
           L13 40"
        stroke="#E0E0E0"
        stroke-width="1"
        fill="none"/>
        
  <path d="M21 16
           L19 40"
        stroke="#E0E0E0"
        stroke-width="1"
        fill="none"/>
  
  <!-- Armhole Shadows -->
  <path d="M11 18
           C11 18 10 22 12 24"
        stroke="#E0E0E0"
        stroke-width="1"
        fill="none"/>
        
  <path d="M21 18
           C21 18 22 22 20 24"
        stroke="#E0E0E0"
        stroke-width="1"
        fill="none"/>
</svg>
