<?xml version="1.0" encoding="UTF-8"?>
<svg width="32" height="48" viewBox="0 0 32 48" xmlns="http://www.w3.org/2000/svg">
  <!-- Hood -->
  <path d="M12 16
           C12 16 8 14 8 10
           C8 6 12 4 16 4
           C20 4 24 6 24 10
           C24 14 20 16 20 16"
        fill="#FFFFFF"/>
  
  <!-- Hood Opening -->
  <path d="M12 16
           C12 16 14 14 16 14
           C18 14 20 16 20 16"
        stroke="#F0F0F0"
        stroke-width="2"
        fill="none"/>
  
  <!-- Hoodie Body -->
  <path d="M10 16
           L22 16
           L24 40
           L8 40
           L10 16
           Z"
        fill="#FFFFFF"/>
  
  <!-- Long Sleeves -->
  <path d="M10 16
           L4 28
           C4 30 6 32 8 32
           L10 24"
        fill="#FFFFFF"/>
        
  <path d="M22 16
           L28 28
           C28 30 26 32 24 32
           L22 24"
        fill="#FFFFFF"/>
  
  <!-- Front Pocket -->
  <path d="M12 28
           L20 28
           C22 28 22 32 20 32
           L12 32
           C10 32 10 28 12 28
           Z"
        fill="#F8F8F8"/>
  
  <!-- Sleeve Cuffs -->
  <path d="M4 28
           C4 28 6 30 8 30"
        stroke="#F0F0F0"
        stroke-width="2"
        fill="none"/>
        
  <path d="M28 28
           C28 28 26 30 24 30"
        stroke="#F0F0F0"
        stroke-width="2"
        fill="none"/>
  
  <!-- Hood Strings -->
  <path d="M14 16
           L12 20"
        stroke="#F0F0F0"
        stroke-width="1"
        fill="none"/>
        
  <path d="M18 16
           L20 20"
        stroke="#F0F0F0"
        stroke-width="1"
        fill="none"/>
  
  <!-- Wrinkles -->
  <path d="M12 24
           C14 25 18 25 20 24"
        stroke="#F0F0F0"
        stroke-width="1"
        fill="none"/>
        
  <path d="M11 36
           C14 37 18 37 21 36"
        stroke="#F0F0F0"
        stroke-width="1"
        fill="none"/>
  
  <!-- Pocket Wrinkles -->
  <path d="M12 30
           C14 31 18 31 20 30"
        stroke="#F0F0F0"
        stroke-width="1"
        fill="none"/>
  
  <!-- Shadows -->
  <path d="M10 16
           L12 40"
        stroke="#E0E0E0"
        stroke-width="1"
        fill="none"/>
        
  <path d="M22 16
           L20 40"
        stroke="#E0E0E0"
        stroke-width="1"
        fill="none"/>
</svg>
